<svg id="visual" viewBox="0 0 900 300" width="900" height="300" xmlns="http://www.w3.org/2000/svg" xmlns:xlink="http://www.w3.org/1999/xlink" version="1.1"><path d="M351 0L293 0L293 27L335 27L335 55L356 55L356 82L333 82L333 109L286 109L286 136L363 136L363 164L365 164L365 191L286 191L286 218L343 218L343 245L370 245L370 273L320 273L320 300L0 300L0 273L0 273L0 245L0 245L0 218L0 218L0 191L0 191L0 164L0 164L0 136L0 136L0 109L0 109L0 82L0 82L0 55L0 55L0 27L0 27L0 0L0 0Z" fill="#d6d6d6"></path><path d="M285 0L243 0L243 27L251 27L251 55L228 55L228 82L228 82L228 109L302 109L302 136L244 136L244 164L259 164L259 191L275 191L275 218L230 218L230 245L308 245L308 273L279 273L279 300L0 300L0 273L0 273L0 245L0 245L0 218L0 218L0 191L0 191L0 164L0 164L0 136L0 136L0 109L0 109L0 82L0 82L0 55L0 55L0 27L0 27L0 0L0 0Z" fill="#b7d6cc"></path><path d="M210 0L217 0L217 27L224 27L224 55L194 55L194 82L168 82L168 109L219 109L219 136L194 136L194 164L240 164L240 191L206 191L206 218L200 218L200 245L194 245L194 273L229 273L229 300L0 300L0 273L0 273L0 245L0 245L0 218L0 218L0 191L0 191L0 164L0 164L0 136L0 136L0 109L0 109L0 82L0 82L0 55L0 55L0 27L0 27L0 0L0 0Z" fill="#95d5c2"></path><path d="M115 0L118 0L118 27L106 27L106 55L126 55L126 82L150 82L150 109L110 109L110 136L138 136L138 164L127 164L127 191L111 191L111 218L119 218L119 245L121 245L121 273L106 273L106 300L0 300L0 273L0 273L0 245L0 245L0 218L0 218L0 191L0 191L0 164L0 164L0 136L0 136L0 109L0 109L0 82L0 82L0 55L0 55L0 27L0 27L0 0L0 0Z" fill="#6cd4b8"></path><path d="M46 0L91 0L91 27L105 27L105 55L50 55L50 82L89 82L89 109L83 109L83 136L49 136L49 164L48 164L48 191L103 191L103 218L55 218L55 245L86 245L86 273L99 273L99 300L0 300L0 273L0 273L0 245L0 245L0 218L0 218L0 191L0 191L0 164L0 164L0 136L0 136L0 109L0 109L0 82L0 82L0 55L0 55L0 27L0 27L0 0L0 0Z" fill="#2bd2ae"></path></svg>