<svg id="visual" viewBox="0 0 900 600" width="900" height="600" xmlns="http://www.w3.org/2000/svg" xmlns:xlink="http://www.w3.org/1999/xlink" version="1.1"><rect x="0" y="0" width="900" height="600" fill="#e6e6e6"></rect><path d="M0 375L129 417L257 386L386 354L514 375L643 431L771 365L900 428L900 601L771 601L643 601L514 601L386 601L257 601L129 601L0 601Z" fill="#d4caba"></path><path d="M0 436L129 441L257 464L386 407L514 480L643 422L771 475L900 431L900 601L771 601L643 601L514 601L386 601L257 601L129 601L0 601Z" fill="#cab4ac"></path><path d="M0 455L129 500L257 458L386 483L514 498L643 494L771 510L900 450L900 601L771 601L643 601L514 601L386 601L257 601L129 601L0 601Z" fill="#b9a0a3"></path><path d="M0 498L129 485L257 531L386 488L514 540L643 513L771 485L900 506L900 601L771 601L643 601L514 601L386 601L257 601L129 601L0 601Z" fill="#a18f9c"></path><path d="M0 527L129 527L257 566L386 541L514 564L643 534L771 565L900 540L900 601L771 601L643 601L514 601L386 601L257 601L129 601L0 601Z" fill="#838192"></path></svg>